# xmcd CD database file
#
# Track frame offsets:
#	150
#	10880
#	36936
#	52580
#	70874
#	91370
#	115147
#	134797
#	146525
#	163679
#	177121
#	195352
#
# Disc length: 2789 seconds
#
# Revision: 0
# Processed by: cddbd v1.5.2PL0 Copyright (c) Steve Scherf et al.
# Submitted via: CDex 1.70beta2
#
DISCID=9d0ae30c
DTITLE=Jazzmundo - Cousto
DYEAR=2004
DGENRE=Blues
TTITLE0=Shuff
TTITLE1=Triste
TTITLE2=Sweet Georgia Brown
TTITLE3=East Swing
TTITLE4=Minor Swing
TTITLE5=I've Found a New Baby
TTITLE6=Georgia
TTITLE7=Nuages
TTITLE8=HCQ Strut
TTITLE9=Fiso Place
TTITLE10=Anniversary Song
TTITLE11=Limehouse Blues
EXTD=YEAR: 2004
EXTT0=
EXTT1=
EXTT2=
EXTT3=
EXTT4=
EXTT5=
EXTT6=
EXTT7=
EXTT8=
EXTT9=
EXTT10=
EXTT11=
PLAYORDER=
